# xmcd
#
# Track frame offsets:
#	150
#	18120
#	33600
#	50572
#	60607
#	77532
#	92897
#	109875
#	127747
#	144250
#
# Disc length: 2142 seconds
#
# Revision: 6
# Processed by: cddbd v1.5.2PL0 Copyright (c) Steve Scherf et al.
# Submitted via: EasyCDDAExtractor 15.3.0.1
#
DISCID=79085c0a
DTITLE=Edith Marquez - Frente A Ti
DYEAR=1998
DGENRE=Latin
TTITLE0=Ya Que Voy A Estar Sin Ti
TTITLE1=Enamorada
TTITLE2=Mi Error, Mi Fantasia
TTITLE3=Bajale
TTITLE4=Mirame
TTITLE5=Dos Recuerdos
TTITLE6=No Se Que Estoy Pagando
TTITLE7=Eso Jamas
TTITLE8=Por Hablarle De Ti
TTITLE9=Adios
EXTD=YEAR: 1998
EXTT0=
EXTT1=
EXTT2=
EXTT3=
EXTT4=
EXTT5=
EXTT6=
EXTT7=
EXTT8=
EXTT9=
PLAYORDER=
